<svg xmlns="http://www.w3.org/2000/svg" viewBox="0 0 900 530" role="img" aria-label="Equipment illustrations paired with standard circuit symbols"><title>Equipment illustrations paired with standard circuit symbols</title><rect width="900" height="530" fill="#fffdf8"/><text x="160" y="33" font-family="Arial, sans-serif" font-size="23" font-weight="600" text-anchor="middle" fill="#14263d">Equipment illustration</text><text x="620" y="33" font-family="Arial, sans-serif" font-size="23" font-weight="600" text-anchor="middle" fill="#14263d">Circuit symbol</text><line x1="20" y1="214" x2="880" y2="214" stroke="#dedbd2" stroke-width="1" stroke-linecap="round"/><g transform="translate(185 133) scale(0.85)"><rect x="-83" y="24" width="173" height="14" rx="3" fill="#303f52" stroke="#14263d" stroke-width="2"/><rect x="-60" y="-27" width="120" height="54" rx="5" fill="#d89038" stroke="#14263d" stroke-width="2"/><rect x="-62" y="-27" width="30" height="54" rx="4" fill="#303f52" stroke="#14263d" stroke-width="2"/><rect x="60" y="-9" width="10" height="18" rx="2" fill="#a9b1b4" stroke="#14263d" stroke-width="2"/><text x="40" y="9" font-family="Arial, sans-serif" font-size="23" font-weight="600" text-anchor="middle" fill="#14263d">+</text><text x="-47" y="8" font-family="Arial, sans-serif" font-size="23" font-weight="600" text-anchor="middle" fill="#fffdf8">−</text></g><g transform="translate(620 129) scale(1.1)"><line x1="-80" y1="0" x2="-10" y2="0" stroke="#14263d" stroke-width="5" stroke-linecap="round"/><line x1="-10" y1="-36" x2="-10" y2="36" stroke="#14263d" stroke-width="4" stroke-linecap="round"/><line x1="12" y1="-19" x2="12" y2="19" stroke="#14263d" stroke-width="7" stroke-linecap="round"/><line x1="12" y1="0" x2="80" y2="0" stroke="#14263d" stroke-width="5" stroke-linecap="round"/></g><text x="420" y="190" font-family="Arial, sans-serif" font-size="24" font-weight="600" text-anchor="middle" fill="#14263d">Cell</text><line x1="20" y1="369" x2="880" y2="369" stroke="#dedbd2" stroke-width="1" stroke-linecap="round"/><g transform="translate(185 288) scale(0.78)"><rect x="-157" y="-38" width="300" height="79" rx="5" fill="#303f52" stroke="#14263d" stroke-width="2"/><g transform="translate(-72 0)"><rect x="-60" y="-27" width="120" height="54" rx="5" fill="#d89038" stroke="#14263d" stroke-width="2"/><rect x="-62" y="-27" width="30" height="54" rx="4" fill="#303f52" stroke="#14263d" stroke-width="2"/><rect x="60" y="-9" width="10" height="18" rx="2" fill="#a9b1b4" stroke="#14263d" stroke-width="2"/><text x="40" y="9" font-family="Arial, sans-serif" font-size="23" font-weight="600" text-anchor="middle" fill="#14263d">+</text><text x="-47" y="8" font-family="Arial, sans-serif" font-size="23" font-weight="600" text-anchor="middle" fill="#fffdf8">−</text></g><g transform="translate(65 0)"><rect x="-60" y="-27" width="120" height="54" rx="5" fill="#d89038" stroke="#14263d" stroke-width="2"/><rect x="-62" y="-27" width="30" height="54" rx="4" fill="#303f52" stroke="#14263d" stroke-width="2"/><rect x="60" y="-9" width="10" height="18" rx="2" fill="#a9b1b4" stroke="#14263d" stroke-width="2"/><text x="40" y="9" font-family="Arial, sans-serif" font-size="23" font-weight="600" text-anchor="middle" fill="#14263d">+</text><text x="-47" y="8" font-family="Arial, sans-serif" font-size="23" font-weight="600" text-anchor="middle" fill="#fffdf8">−</text></g></g><g transform="translate(620 284) scale(1.1)"><line x1="-90" y1="0" x2="-40" y2="0" stroke="#14263d" stroke-width="5" stroke-linecap="round"/><line x1="-40" y1="-36" x2="-40" y2="36" stroke="#14263d" stroke-width="4" stroke-linecap="round"/><line x1="-20" y1="-19" x2="-20" y2="19" stroke="#14263d" stroke-width="7" stroke-linecap="round"/><line x1="10" y1="-36" x2="10" y2="36" stroke="#14263d" stroke-width="4" stroke-linecap="round"/><line x1="30" y1="-19" x2="30" y2="19" stroke="#14263d" stroke-width="7" stroke-linecap="round"/><line x1="-20" y1="0" x2="10" y2="0" stroke="#14263d" stroke-width="5" stroke-linecap="round"/><line x1="30" y1="0" x2="90" y2="0" stroke="#14263d" stroke-width="5" stroke-linecap="round"/></g><text x="420" y="345" font-family="Arial, sans-serif" font-size="24" font-weight="600" text-anchor="middle" fill="#14263d">Battery (two cells)</text><line x1="20" y1="524" x2="880" y2="524" stroke="#dedbd2" stroke-width="1" stroke-linecap="round"/><g transform="translate(185 443) scale(0.85)"><path d="M-100 12 C-50 -55,35 66,100 -6" fill="none" stroke="#a74136" stroke-width="9"/><rect x="-128" y="1" width="37" height="20" rx="2" fill="#6f7e86" stroke="#14263d" stroke-width="2"/><rect x="95" y="-20" width="37" height="20" rx="2" fill="#6f7e86" stroke="#14263d" stroke-width="2"/><line x1="-133" y1="5" x2="-147" y2="8" stroke="#14263d" stroke-width="3" stroke-linecap="round"/><line x1="132" y1="-10" x2="147" y2="-10" stroke="#14263d" stroke-width="3" stroke-linecap="round"/></g><g transform="translate(620 439) scale(1.1)"><line x1="-80" y1="0" x2="80" y2="0" stroke="#14263d" stroke-width="5" stroke-linecap="round"/></g><text x="420" y="500" font-family="Arial, sans-serif" font-size="24" font-weight="600" text-anchor="middle" fill="#14263d">Connecting wire</text></svg>