<svg xmlns="http://www.w3.org/2000/svg" viewBox="0 0 900 685" role="img" aria-label="Equipment illustrations paired with standard circuit symbols"><title>Equipment illustrations paired with standard circuit symbols</title><rect width="900" height="685" fill="#fffdf8"/><text x="160" y="33" font-family="Arial, sans-serif" font-size="23" font-weight="600" text-anchor="middle" fill="#14263d">Equipment illustration</text><text x="620" y="33" font-family="Arial, sans-serif" font-size="23" font-weight="600" text-anchor="middle" fill="#14263d">Circuit symbol</text><line x1="20" y1="214" x2="880" y2="214" stroke="#dedbd2" stroke-width="1" stroke-linecap="round"/><g transform="translate(185 133) scale(0.85)"><rect x="-90" y="32" width="180" height="20" rx="7" fill="#dae5e7" stroke="#14263d" stroke-width="2"/><ellipse cx="0" cy="28" rx="39" ry="14" fill="#a1afb5" stroke="#14263d" stroke-width="3"/><rect x="-19" y="8" width="38" height="21" rx="2" fill="#8f9da3" stroke="#14263d" stroke-width="2"/><path d="M-17 8 C-17 -4,-40 -7,-40 -35 C-40 -78,40 -78,40 -35 C40 -7,17 -4,17 8Z" fill="#f8ecd2" stroke="#14263d" stroke-width="3"/><line x1="-10" y1="10" x2="-10" y2="-25" stroke="#14263d" stroke-width="2" stroke-linecap="round"/><line x1="10" y1="10" x2="10" y2="-25" stroke="#14263d" stroke-width="2" stroke-linecap="round"/><path d="M-10 -25 L-6 -34 L-2 -25 L2 -34 L6 -25 L10 -34" fill="none" stroke="#14263d" stroke-width="2"/><circle cx="-70" cy="31" r="7" fill="#b78324" stroke="#14263d" stroke-width="4"/><circle cx="70" cy="31" r="7" fill="#b78324" stroke="#14263d" stroke-width="4"/></g><g transform="translate(620 129) scale(1.1)"><line x1="-80" y1="0" x2="-35" y2="0" stroke="#14263d" stroke-width="5" stroke-linecap="round"/><circle cx="0" cy="0" r="35" fill="#fffdf8" stroke="#14263d" stroke-width="4"/><line x1="35" y1="0" x2="80" y2="0" stroke="#14263d" stroke-width="5" stroke-linecap="round"/><line x1="-24" y1="-24" x2="24" y2="24" stroke="#14263d" stroke-width="4" stroke-linecap="round"/><line x1="-24" y1="24" x2="24" y2="-24" stroke="#14263d" stroke-width="4" stroke-linecap="round"/></g><text x="420" y="190" font-family="Arial, sans-serif" font-size="24" font-weight="600" text-anchor="middle" fill="#14263d">Lamp (bulb)</text><line x1="20" y1="369" x2="880" y2="369" stroke="#dedbd2" stroke-width="1" stroke-linecap="round"/><g transform="translate(185 288) scale(0.85)"><rect x="-105" y="6" width="210" height="32" rx="5" fill="#8daab8" stroke="#14263d" stroke-width="2"/><rect x="-77" y="-11" width="28" height="26" rx="2" fill="#b78324" stroke="#14263d" stroke-width="2"/><rect x="49" y="-11" width="28" height="26" rx="2" fill="#b78324" stroke="#14263d" stroke-width="2"/><line x1="-63" y1="-9" x2="42" y2="-49" stroke="#a0a9ad" stroke-width="13" stroke-linecap="round"/><circle cx="-63" cy="-9" r="7" fill="#b78324" stroke="#14263d" stroke-width="4"/><circle cx="63" cy="-9" r="7" fill="#b78324" stroke="#14263d" stroke-width="4"/><rect x="25" y="-65" width="42" height="22" rx="4" fill="#303f52" stroke="#14263d" stroke-width="2"/></g><g transform="translate(620 284) scale(1.1)"><line x1="-80" y1="0" x2="-35" y2="0" stroke="#14263d" stroke-width="5" stroke-linecap="round"/><line x1="35" y1="0" x2="80" y2="0" stroke="#14263d" stroke-width="5" stroke-linecap="round"/><line x1="-35" y1="0" x2="24" y2="-38" stroke="#14263d" stroke-width="5" stroke-linecap="round"/><circle cx="-35" cy="0" r="5" fill="#fffdf8" stroke="#14263d" stroke-width="4"/><circle cx="35" cy="0" r="5" fill="#fffdf8" stroke="#14263d" stroke-width="4"/></g><text x="420" y="345" font-family="Arial, sans-serif" font-size="24" font-weight="600" text-anchor="middle" fill="#14263d">Open switch</text><line x1="20" y1="524" x2="880" y2="524" stroke="#dedbd2" stroke-width="1" stroke-linecap="round"/><g transform="translate(185 443) scale(0.85)"><rect x="-105" y="6" width="210" height="32" rx="5" fill="#8daab8" stroke="#14263d" stroke-width="2"/><rect x="-77" y="-11" width="28" height="26" rx="2" fill="#b78324" stroke="#14263d" stroke-width="2"/><rect x="49" y="-11" width="28" height="26" rx="2" fill="#b78324" stroke="#14263d" stroke-width="2"/><line x1="-63" y1="-9" x2="63" y2="-9" stroke="#a0a9ad" stroke-width="13" stroke-linecap="round"/><circle cx="-63" cy="-9" r="7" fill="#b78324" stroke="#14263d" stroke-width="4"/><circle cx="63" cy="-9" r="7" fill="#b78324" stroke="#14263d" stroke-width="4"/><rect x="42" y="-25" width="42" height="22" rx="4" fill="#303f52" stroke="#14263d" stroke-width="2"/></g><g transform="translate(620 439) scale(1.1)"><line x1="-80" y1="0" x2="-35" y2="0" stroke="#14263d" stroke-width="5" stroke-linecap="round"/><line x1="35" y1="0" x2="80" y2="0" stroke="#14263d" stroke-width="5" stroke-linecap="round"/><line x1="-35" y1="0" x2="35" y2="0" stroke="#14263d" stroke-width="5" stroke-linecap="round"/><circle cx="-35" cy="0" r="5" fill="#fffdf8" stroke="#14263d" stroke-width="4"/><circle cx="35" cy="0" r="5" fill="#fffdf8" stroke="#14263d" stroke-width="4"/></g><text x="420" y="500" font-family="Arial, sans-serif" font-size="24" font-weight="600" text-anchor="middle" fill="#14263d">Closed switch</text><line x1="20" y1="679" x2="880" y2="679" stroke="#dedbd2" stroke-width="1" stroke-linecap="round"/><g transform="translate(185 598) scale(0.85)"><rect x="-90" y="-64" width="180" height="125" rx="9" fill="#d89038" stroke="#14263d" stroke-width="2"/><rect x="-69" y="-46" width="138" height="60" rx="5" fill="#d9e2cb" stroke="#14263d" stroke-width="2"/><text x="0" y="-6" font-family="Arial, sans-serif" font-size="39" font-weight="600" text-anchor="middle" fill="#14263d">0.20</text><text x="0" y="43" font-family="Arial, sans-serif" font-size="24" font-weight="600" text-anchor="middle" fill="#14263d">A</text><circle cx="-61" cy="39" r="9" fill="#a74136" stroke="#14263d" stroke-width="4"/><circle cx="61" cy="39" r="9" fill="#303f52" stroke="#14263d" stroke-width="4"/></g><g transform="translate(620 594) scale(1.1)"><line x1="-80" y1="0" x2="-35" y2="0" stroke="#14263d" stroke-width="5" stroke-linecap="round"/><circle cx="0" cy="0" r="35" fill="#fffdf8" stroke="#14263d" stroke-width="4"/><line x1="35" y1="0" x2="80" y2="0" stroke="#14263d" stroke-width="5" stroke-linecap="round"/><text x="0" y="12" font-family="Arial, sans-serif" font-size="36" font-weight="600" text-anchor="middle" fill="#14263d">A</text></g><text x="420" y="655" font-family="Arial, sans-serif" font-size="24" font-weight="600" text-anchor="middle" fill="#14263d">Ammeter</text></svg>