<svg xmlns="http://www.w3.org/2000/svg" viewBox="0 0 900 560" role="img" aria-label="Two lamp branches in parallel across a battery"><title>Two lamp branches in parallel across a battery</title><rect width="900" height="560" fill="#fffdf8"/><path d="M100 100L375 100" fill="none" stroke="#14263d" stroke-width="4"/><g transform="translate(440 100)"><path d="M-65 0L-25 0" fill="none" stroke="#14263d" stroke-width="4"/><path d="M-25 -28L-25 28" fill="none" stroke="#14263d" stroke-width="4"/><path d="M-10 -16L-10 16" fill="none" stroke="#14263d" stroke-width="4"/><path d="M-10 0L10 0" fill="none" stroke="#14263d" stroke-width="4"/><path d="M10 -28L10 28" fill="none" stroke="#14263d" stroke-width="4"/><path d="M25 -16L25 16" fill="none" stroke="#14263d" stroke-width="4"/><path d="M25 0L65 0" fill="none" stroke="#14263d" stroke-width="4"/></g><path d="M505 100L800 100" fill="none" stroke="#14263d" stroke-width="4"/><path d="M100 100L100 390" fill="none" stroke="#14263d" stroke-width="4"/><path d="M800 100L800 390" fill="none" stroke="#14263d" stroke-width="4"/><text x="440" y="48" text-anchor="middle" font-family="Arial,sans-serif" font-size="24" fill="#14263d">6 V source setting</text><path d="M100 250L385 250" fill="none" stroke="#14263d" stroke-width="4"/><g transform="translate(450 250)"><path d="M-65 0L-30 0" fill="none" stroke="#14263d" stroke-width="4"/><circle r="30" fill="#fffdf8" stroke="#14263d" stroke-width="4"/><path d="M30 0L65 0" fill="none" stroke="#14263d" stroke-width="4"/><path d="M-20 -20L20 20" fill="none" stroke="#14263d" stroke-width="4"/><path d="M-20 20L20 -20" fill="none" stroke="#14263d" stroke-width="4"/></g><path d="M515 250L800 250" fill="none" stroke="#14263d" stroke-width="4"/><text x="600" y="212" text-anchor="middle" font-family="Arial,sans-serif" font-size="24" fill="#14263d">Lamp 1</text><circle cx="100" cy="250" r="6" fill="#14263d"/><circle cx="800" cy="250" r="6" fill="#14263d"/><path d="M100 390L385 390" fill="none" stroke="#14263d" stroke-width="4"/><g transform="translate(450 390)"><path d="M-65 0L-30 0" fill="none" stroke="#14263d" stroke-width="4"/><circle r="30" fill="#fffdf8" stroke="#14263d" stroke-width="4"/><path d="M30 0L65 0" fill="none" stroke="#14263d" stroke-width="4"/><path d="M-20 -20L20 20" fill="none" stroke="#14263d" stroke-width="4"/><path d="M-20 20L20 -20" fill="none" stroke="#14263d" stroke-width="4"/></g><path d="M515 390L800 390" fill="none" stroke="#14263d" stroke-width="4"/><text x="600" y="352" text-anchor="middle" font-family="Arial,sans-serif" font-size="24" fill="#14263d">Lamp 2</text><circle cx="100" cy="390" r="6" fill="#14263d"/><circle cx="800" cy="390" r="6" fill="#14263d"/><path d="M385 390L385 500" fill="none" stroke="#14263d" stroke-width="4"/><g transform="translate(450 500)"><path d="M-65 0L-30 0" fill="none" stroke="#14263d" stroke-width="4"/><circle r="30" fill="#fffdf8" stroke="#14263d" stroke-width="4"/><path d="M30 0L65 0" fill="none" stroke="#14263d" stroke-width="4"/><text x="0" y="9" text-anchor="middle" font-family="Arial,sans-serif" font-size="27" fill="#14263d">V</text></g><path d="M515 500L515 390" fill="none" stroke="#14263d" stroke-width="4"/><circle cx="385" cy="390" r="6" fill="#14263d"/><circle cx="515" cy="390" r="6" fill="#14263d"/></svg>