<svg xmlns="http://www.w3.org/2000/svg" viewBox="0 0 900 560" role="img" aria-label="A voltmeter connects across a lamp while the lamp stays connected in the circuit"><title>A voltmeter connects across a lamp while the lamp stays connected in the circuit</title><rect width="900" height="560" fill="#fffdf8"/><path d="M100 90L375 90" fill="none" stroke="#14263d" stroke-width="4"/><g transform="translate(440 90)"><path d="M-65 0L-25 0" fill="none" stroke="#14263d" stroke-width="4"/><path d="M-25 -28L-25 28" fill="none" stroke="#14263d" stroke-width="4"/><path d="M-10 -16L-10 16" fill="none" stroke="#14263d" stroke-width="4"/><path d="M-10 0L10 0" fill="none" stroke="#14263d" stroke-width="4"/><path d="M10 -28L10 28" fill="none" stroke="#14263d" stroke-width="4"/><path d="M25 -16L25 16" fill="none" stroke="#14263d" stroke-width="4"/><path d="M25 0L65 0" fill="none" stroke="#14263d" stroke-width="4"/></g><path d="M505 90L800 90" fill="none" stroke="#14263d" stroke-width="4"/><path d="M100 90L100 320" fill="none" stroke="#14263d" stroke-width="4"/><path d="M800 90L800 320" fill="none" stroke="#14263d" stroke-width="4"/><path d="M100 320L375 320" fill="none" stroke="#14263d" stroke-width="4"/><g transform="translate(440 320)"><path d="M-65 0L-30 0" fill="none" stroke="#14263d" stroke-width="4"/><circle r="30" fill="#fffdf8" stroke="#14263d" stroke-width="4"/><path d="M30 0L65 0" fill="none" stroke="#14263d" stroke-width="4"/><path d="M-20 -20L20 20" fill="none" stroke="#14263d" stroke-width="4"/><path d="M-20 20L20 -20" fill="none" stroke="#14263d" stroke-width="4"/></g><path d="M505 320L800 320" fill="none" stroke="#14263d" stroke-width="4"/><path d="M375 320L375 465" fill="none" stroke="#14263d" stroke-width="4"/><g transform="translate(440 465)"><path d="M-65 0L-30 0" fill="none" stroke="#14263d" stroke-width="4"/><circle r="30" fill="#fffdf8" stroke="#14263d" stroke-width="4"/><path d="M30 0L65 0" fill="none" stroke="#14263d" stroke-width="4"/><text x="0" y="9" text-anchor="middle" font-family="Arial,sans-serif" font-size="27" fill="#14263d">V</text></g><path d="M505 465L505 320" fill="none" stroke="#14263d" stroke-width="4"/><circle cx="375" cy="320" r="6" fill="#14263d"/><circle cx="505" cy="320" r="6" fill="#14263d"/><text x="440" y="35" text-anchor="middle" font-family="Arial,sans-serif" font-size="24" fill="#14263d">Source</text><text x="440" y="260" text-anchor="middle" font-family="Arial,sans-serif" font-size="24" fill="#14263d">Lamp</text><text x="200" y="405" text-anchor="middle" font-family="Arial,sans-serif" font-size="24" fill="#14263d">Keep this path</text><text x="440" y="535" text-anchor="middle" font-family="Arial,sans-serif" font-size="24" fill="#14263d">Voltmeter across the two lamp terminals</text></svg>